<?xml version="1.0" encoding="utf-8"?>
<!-- Generator: Adobe Illustrator 27.0.0, SVG Export Plug-In . SVG Version: 6.00 Build 0)  -->
<svg version="1.1" id="Layer_1" xmlns="http://www.w3.org/2000/svg" xmlns:xlink="http://www.w3.org/1999/xlink" x="0px" y="0px"
	 viewBox="0 0 1916 450" style="enable-background:new 0 0 1916 450;" xml:space="preserve">
<style type="text/css">
	.st0{fill:#c3b091 !important;}
	.st1{fill:#FEFEFE;}
</style>
<g>
	<g>
		<path class="st0" d="M0,346.01C0,230.67,0,115.34,0,0c638.67,0,1277.33,0,1916,0c0,120,0,240.01,0,360.01
			c-1.33-0.06-2.7,0.06-3.99-0.22c-26.23-5.7-52.5-11.29-78.68-17.24c-26.82-6.09-53.5-12.39-79.09-23.1
			c-37.08-15.53-75.96-24.69-116.13-27.19c-27.95-1.74-55.89-0.4-83.61,4c-48.88,7.75-95.49,22.85-139.89,44.49
			c-29.97,14.61-61.17,25.35-93.49,33.18c-54.23,13.13-109.3,21.21-164.73,26.91c-25.59,2.63-51.26,4.63-76.95,6.01
			c-23.43,1.26-46.92,1.89-70.38,1.69c-29.25-0.25-58.51-1.33-87.73-2.62c-18.02-0.8-36.03-2.25-53.97-4.15
			c-24.34-2.58-48.63-5.66-72.89-8.91c-22.61-3.03-45.28-5.86-67.69-10.01c-32.99-6.11-65.92-12.72-98.62-20.25
			c-26-5.99-51.28-14.59-75.65-25.73c-22.15-10.12-44.15-20.72-66.89-29.33c-52.56-19.9-106.95-32.11-163.32-33.2
			c-20.87-0.4-41.89,0.96-62.65,3.26c-30.54,3.39-60.13,11.44-88.96,22.12c-16.54,6.13-32.79,13.22-49.64,18.31
			c-18.13,5.48-36.77,9.31-55.26,13.52C43.91,336.57,21.94,341.21,0,346.01z"/>
		<path class="st1" d="M0,346.01c21.94-4.8,43.91-9.44,65.81-14.44c18.49-4.22,37.13-8.05,55.26-13.52
			c16.85-5.09,33.1-12.18,49.64-18.31c28.83-10.69,58.42-18.74,88.96-22.12c20.76-2.3,41.79-3.67,62.65-3.26
			c56.37,1.08,110.76,13.3,163.32,33.2c22.74,8.61,44.75,19.21,66.89,29.33c24.37,11.14,49.65,19.74,75.65,25.73
			c32.69,7.53,65.62,14.13,98.62,20.25c22.41,4.15,45.08,6.99,67.69,10.01c24.26,3.25,48.55,6.33,72.89,8.91
			c17.94,1.9,35.95,3.35,53.97,4.15c29.23,1.29,58.48,2.38,87.73,2.62c23.46,0.2,46.95-0.44,70.38-1.69
			c25.68-1.38,51.36-3.38,76.95-6.01c55.43-5.7,110.5-13.78,164.73-26.91c32.32-7.82,63.52-18.57,93.49-33.18
			c44.4-21.64,91.02-36.74,139.89-44.49c27.72-4.4,55.66-5.74,83.61-4c40.18,2.5,79.05,11.66,116.13,27.19
			c25.59,10.72,52.27,17.01,79.09,23.1c26.18,5.95,52.44,11.54,78.68,17.24c1.28,0.28,2.65,0.16,3.99,0.22c0,29.99,0,59.99,0,89.99
			c-638.67,0-1277.33,0-1916,0C0,415.33,0,380.67,0,346.01z"/>
	</g>
</g>
</svg>
